#!OML:ASF H:\Not Pregnant\Project 1\Capture day 1\Session 1\non-pregnant.ASF
:FULLY-SPECIFIED
:DEGREES
698
root 15.6993 15.4895 13.7584 10.6899 26.5226 -1.82373
lowerback -3.32439 4.09177 5.69053
upperback -9.20134 5.67151 -0.325346
thorax -7.23637 2.46537 -3.65283
lowerneck 41.8424 -23.0905 -21.8891
upperneck -36.1296 -31.0004 53.8482
head -2.12248 -22.4278 29.4041
rclavicle 1.73937e-014 1.70955e-014
rhumerus -31.2237 50.6779 -121.512
rradius 58.0666
rwrist 3.59294
rhand -22.1392 3.48712
rfingers 7.12502
rthumb 4.27436 -26.4497
lclavicle 1.73937e-014 1.70955e-014
lhumerus -49.8986 -1.49621 88.6835
lradius 44.1473
lwrist 37.315
lhand -18.5808 -14.5811
lfingers 7.12502
lthumb 7.70976 15.2584
rfemur -38.6741 -9.03173 31.7747
rtibia 44.6504
rfoot -12.3609 -9.47854
rtoes -9.17879
lfemur -2.52846 4.91304 -8.40129
ltibia 48.5062
lfoot 26.7749 -18.443
ltoes -1.0086
699
root 15.7348 15.474 13.8571 10.5618 25.07 -2.21842
lowerback -3.14824 4.05183 6.13773
upperback -9.11122 5.63234 -0.205256
thorax -7.22043 2.41808 -3.78164
lowerneck 41.5691 -22.9127 -21.9516
upperneck -36.0234 -30.8494 53.8671
head -2.09365 -22.3355 29.4609
rclavicle -4.0403e-014 -1.92821e-014
rhumerus -31.2225 48.5282 -120.863
rradius 55.2107
rwrist 4.23373
rhand -22.8927 3.57695
rfingers 7.12502
rthumb 3.54671 -26.3733
lclavicle -4.0403e-014 -1.92821e-014
lhumerus -49.0854 -0.182512 87.824
lradius 42.7547
lwrist 38.5947
lhand -18.8057 -13.47
lfingers 7.12502
lthumb 7.49269 16.3773
rfemur -38.2067 -8.46082 32.1615
rtibia 44.668
rfoot -12.9744 -8.72374
rtoes -9.09743
lfemur -3.70718 5.14033 -8.42851
ltibia 50.8849
lfoot 25.2986 -18.7932
ltoes -2.83458
700
root 15.7631 15.4648 13.9515 10.5972 23.8046 -2.48132
lowerback -3.05195 3.92501 6.37709
upperback -9.02875 5.4701 -0.0805466
thorax -7.19701 2.32508 -3.78423
lowerneck 41.3077 -22.7372 -22.0063
upperneck -35.9487 -30.6926 53.8832
head -2.08191 -22.2412 29.5328
rclavicle -3.08613e-014 7.15625e-015
rhumerus -30.9842 46.0902 -119.874
rradius 52.1803
rwrist 5.16935
rhand -23.6045 3.63423
rfingers 7.12502
rthumb 2.85932 -26.3263
lclavicle -3.08613e-014 7.15625e-015
lhumerus -48.262 1.20225 86.9722
lradius 41.3468
lwrist 39.8184
lhand -19.1577 -12.2823
lfingers 7.12502
lthumb 7.15297 17.5768
rfemur -37.8591 -7.99344 32.4584
rtibia 44.64
rfoot -13.5192 -8.00951
rtoes -8.97299
lfemur -5.15546 5.20302 -8.54628
ltibia 53.2529
lfoot 23.6903 -18.9502
ltoes -4.64238
701
root 15.7848 15.4617 14.041 10.7811 22.7337 -2.62408
lowerback -3.0202 3.71243 6.42648
upperback -8.96813 5.18728 0.0449526
thorax -7.18729 2.18489 -3.67621
lowerneck 41.0511 -22.5488 -22.0662
upperneck -35.8677 -30.524 53.8917
head -2.07619 -22.1394 29.6148
rclavicle 5.68524e-014 1.31198e-014
rhumerus -30.5135 43.279 -118.543
rradius 48.9911
rwrist 6.47874
rhand -24.2402 3.6274
rfingers 7.12502
rthumb 2.24541 -26.3405
lclavicle 5.68524e-014 1.31198e-014
lhumerus -47.4629 2.58086 86.1689
lradius 39.9562
lwrist 40.9197
lhand -19.7415 -11.0788
lfingers 7.12502
lthumb 6.58938 18.7987
rfemur -37.6315 -7.62823 32.672
rtibia 44.566
rfoot -13.9879 -7.35064
rtoes -8.85019
lfemur -6.86614 5.08293 -8.74709
ltibia 55.574
lfoot 22.0543 -18.9447
ltoes -6.3328
702
root 15.803 15.4641 14.1288 11.02 21.7477 -2.69274
lowerback -3.04047 3.45008 6.32988
upperback -8.90272 4.83191 0.180965
thorax -7.15911 2.02003 -3.47154
lowerneck 40.7899 -22.3313 -22.1447
upperneck -35.7423 -30.3368 53.8886
head -2.06529 -22.024 29.7029
rclavicle 1.99282e-014 3.3197e-014
rhumerus -29.8336 40.0488 -116.882
rradius 45.6728
rwrist 8.18208
rhand -24.8261 3.48696
rfingers 7.12502
rthumb 1.67952 -26.4862
lclavicle 1.99282e-014 3.3197e-014
lhumerus -46.7059 3.87717 85.4567
lradius 38.6019
lwrist 41.8476
lhand -20.6007 -9.91732
lfingers 7.12502
lthumb 5.75989 19.9844
rfemur -37.4078 -7.2759 32.8106
rtibia 44.4289
rfoot -14.3927 -6.75055
rtoes -8.72909
lfemur -8.7045 4.87478 -9.0063
ltibia 57.7909
lfoot 20.3277 -18.9663
ltoes -8.4707
703
root 15.8243 15.4719 14.2158 11.2489 20.7502 -2.71964
lowerback -3.08268 3.17894 6.19567
upperback -8.81499 4.46078 0.312851
thorax -7.09438 1.85124 -3.24761
lowerneck 40.5033 -22.0906 -22.2406
upperneck -35.5527 -30.1373 53.8692
head -2.0388 -21.896 29.772
rclavicle -7.09164e-014 -3.1408e-014
rhumerus -28.9759 36.3466 -114.9
rradius 42.2653
rwrist 10.3014
rhand -25.4362 3.13534
rfingers 7.12502
rthumb 1.09024 -26.8416
lclavicle -7.09164e-014 -3.1408e-014
lhumerus -46.007 4.99057 84.8889
lradius 37.3195
lwrist 42.574
lhand -21.7467 -8.85452
lfingers 7.12502
lthumb 4.65332 21.0744
rfemur -37.1105 -6.91524 32.8699
rtibia 44.2098
rfoot -14.744 -6.14915
rtoes -8.63657
lfemur -10.56 4.62303 -9.3437
ltibia 59.8499
lfoot 18.4658 -19.0275
ltoes -11.2173
704
root 15.8499 15.4845 14.3034 11.4514 19.6518 -2.73648
lowerback -3.1464 2.93205 6.05379
upperback -8.7104 4.11901 0.43931
thorax -6.99288 1.69856 -3.02378
lowerneck 40.2095 -21.8301 -22.35
upperneck -35.2943 -29.9298 53.8262
head -2.00029 -21.7572 29.8176
rclavicle -4.24902e-014 -3.93594e-014
rhumerus -27.9948 32.0871 -112.616
rradius 38.8185
rwrist 12.8553
rhand -26.1115 2.51794
rfingers 7.12502
rthumb 0.438046 -27.4614
lclavicle -4.24902e-014 -3.93594e-014
lhumerus -45.3825 5.85813 84.487
lradius 36.1265
lwrist 43.0924
lhand -23.093 -7.93143
lfingers 7.12502
lthumb 3.35326 22.0219
rfemur -36.7138 -6.47439 32.8647
rtibia 43.8983
rfoot -15.0405 -5.53281
rtoes -8.5845
lfemur -12.3713 4.39361 -9.74547
ltibia 61.7173
lfoot 16.4463 -19.1082
ltoes -14.3861
705
root 15.8821 15.5012 14.3939 11.5907 18.3453 -2.77559
lowerback -3.22622 2.75085 5.94692
upperback -8.57297 3.8618 0.556216
thorax -6.83356 1.58711 -2.82919
lowerneck 39.8981 -21.5619 -22.4613
upperneck -34.9718 -29.7197 53.7594
head -1.94977 -21.6105 29.8266
rclavicle 7.37491e-014 1.19271e-014
rhumerus -26.9427 27.2622 -110.04
rradius 35.4071
rwrist 15.8032
rhand -26.8861 1.55675
rfingers 7.12502
rthumb -0.310101 -28.4228
lclavicle 7.37491e-014 1.19271e-014
lhumerus -44.8325 6.40801 84.2735
lradius 35.0544
lwrist 43.4746
lhand -24.5058 -7.17682
lfingers 7.12502
lthumb 1.98887 22.7937
rfemur -36.1691 -5.87621 32.8021
rtibia 43.4955
rfoot -15.2963 -4.86955
rtoes -8.52258
lfemur -14.038 4.2566 -10.1983
ltibia 63.3683
lfoot 14.2895 -19.122
ltoes -17.6565
706
root 15.9158 15.5215 14.4844 11.7712 16.8975 -2.8205
lowerback -3.34922 2.61409 5.82272
upperback -8.44875 3.66131 0.664951
thorax -6.65772 1.50466 -2.63343
lowerneck 39.6042 -21.2957 -22.5693
upperneck -34.6188 -29.5154 53.6689
head -1.90035 -21.4628 29.81
rclavicle -1.43622e-014 -1.23246e-014
rhumerus -25.8897 21.784 -107.173
rradius 32.1099
rwrist 19.1895
rhand -27.7574 0.200065
rfingers 7.12502
rthumb -1.15157 -29.7766
lclavicle -1.43622e-014 -1.23246e-014
lhumerus -44.3618 6.60731 84.2576
lradius 34.1303
lwrist 43.777
lhand -25.8447 -6.61105
lfingers 7.12502
lthumb 0.695696 23.3676
rfemur -35.6173 -5.12393 32.6996
rtibia 43.0146
rfoot -15.4833 -4.18588
rtoes -8.41821
lfemur -15.7064 4.183 -10.6768
ltibia 64.8149
lfoot 12.0934 -19.0204
ltoes -20.654
707
root 15.9486 15.5447 14.5742 12.0247 15.3226 -2.87506
lowerback -3.52163 2.51388 5.65445
upperback -8.3588 3.50812 0.772353
thorax -6.4877 1.44744 -2.41477
lowerneck 39.3423 -21.0294 -22.6841
upperneck -34.2356 -29.3229 53.5539
head -1.84945 -21.3176 29.7684
rclavicle 7.25564e-015 9.93923e-015
rhumerus -24.9398 15.6931 -104.039
rradius 29.0339
rwrist 22.9322
rhand -28.6281 -1.57967
rfingers 7.12502
rthumb -1.99255 -31.5501
lclavicle 7.25564e-015 9.93923e-015
lhumerus -44.0069 6.43103 84.4359
lradius 33.4072
lwrist 44.0733
lhand -26.9958 -6.26116
lfingers 7.12502
lthumb -0.41601 23.7182
rfemur -35.106 -4.21407 32.5758
rtibia 42.4703
rfoot -15.5976 -3.49566
rtoes -8.31948
lfemur -17.4044 4.17144 -11.1468
ltibia 66.0584
lfoot 9.94028 -18.7597
ltoes -23.1747
